<?xml version="1.0" encoding="UTF-8" standalone="no"?>
<svg xmlns="http://www.w3.org/2000/svg" width="78.459999" height="78.459999" version="1.0">
  <defs>
    <filter id="a" width="1.6388891" height="1.6269162" x="-.31944454" y="-.31345809">
      <feGaussianBlur stdDeviation="9.5383549"/>
    </filter>
  </defs>
  <path fill="#888a85" stroke="#888a85" stroke-width=".89999998" d="M357.34146 214.44064c.00466 19.66898-15.93889 35.61631-35.60787 35.61631-19.66899 0-35.61254-15.94733-35.60788-35.61631-.00466-19.66898 15.93889-35.61631 35.60788-35.61631 19.66898 0 35.61253 15.94733 35.60787 35.61631z" filter="url(#a)" opacity=".57339998" transform="matrix(.75791 0 0 .23291 -205.51212 15.702811)"/>
  <path fill="#eeeeec" stroke="#eeeeec" stroke-width=".84484589" d="M71.624263 35.263754c.004375 18.46362-14.962118 33.433661-33.425737 33.433661-18.463629 0-33.430122-14.970041-33.4257476-33.433661C4.768404 16.800135 19.734897 1.8300938 38.198526 1.8300938c18.463619 0 33.430112 14.9700412 33.425737 33.4336602z"/>
  <path fill="none" stroke="#eeeeec" d="M37.533028 13.376132v20.762952h25.554401"/>
  <path fill="#2e3436" stroke="#eeeeec" stroke-width=".89999998" d="M16.770075 23.35832h42.52412v23.757608h-42.52412z"/>
  <path fill="none" stroke="#eeeeec" d="m15.771857 22.360102 22.389215 12.926419L59.41216 23.0172"/>
</svg>